<?xml version="1.0" standalone="no"?>
<!DOCTYPE svg PUBLIC "-//W3C//DTD SVG 20010904//EN"
 "http://www.w3.org/TR/2001/REC-SVG-20010904/DTD/svg10.dtd">
<svg version="1.0" xmlns="http://www.w3.org/2000/svg"
 width="1022.000000pt" height="931.000000pt" viewBox="0 0 1022.000000 931.000000"
 preserveAspectRatio="xMidYMid meet">

<g transform="translate(0.000000,931.000000) scale(0.100000,-0.100000)"
fill="#000000" stroke="none">
<path d="M4911 6601 c-142 -53 -244 -186 -266 -348 -21 -154 85 -342 232 -411
50 -23 70 -27 153 -27 82 0 103 4 152 27 315 147 315 594 0 744 -77 37 -193
43 -271 15z"/>
<path d="M3903 6123 c12 -279 89 -478 250 -650 118 -124 234 -196 420 -258 75
-25 103 -31 109 -22 21 33 -2 269 -38 396 -93 323 -312 538 -649 636 -48 14
-90 25 -93 25 -2 0 -2 -57 1 -127z"/>
<path d="M6041 6215 c-57 -20 -145 -56 -195 -82 -76 -39 -108 -64 -191 -147
-108 -109 -156 -182 -206 -310 -44 -115 -68 -234 -76 -374 l-6 -123 29 7 c80
19 252 87 313 123 238 141 385 361 436 651 16 88 21 290 8 290 -5 0 -55 -16
-112 -35z"/>
<path d="M4969 5313 c-106 -157 -165 -279 -200 -417 -27 -104 -36 -285 -20
-397 15 -101 75 -288 126 -390 53 -106 143 -241 158 -237 21 7 104 138 161
253 92 186 128 327 129 510 2 187 -37 341 -130 518 -49 93 -149 237 -165 237
-4 0 -31 -35 -59 -77z"/>
<path d="M7708 3239 c-261 -27 -484 -128 -660 -297 -207 -199 -334 -480 -357
-791 -43 -585 247 -1065 742 -1225 305 -99 696 -82 962 43 183 85 329 210 432
367 140 215 204 443 204 722 0 296 -80 545 -246 764 -233 309 -634 464 -1077
417z m347 -406 c39 -8 108 -33 155 -55 69 -33 101 -57 171 -127 71 -71 94
-102 133 -181 62 -127 87 -227 93 -375 15 -343 -126 -624 -378 -755 -122 -63
-224 -83 -399 -77 -155 5 -230 22 -335 75 -252 127 -400 426 -382 771 27 521
433 834 942 724z"/>
<path d="M2059 3133 c-361 -804 -989 -2212 -989 -2217 0 -3 104 -5 231 -4
l232 3 395 898 c217 494 399 894 403 890 4 -4 182 -406 394 -893 213 -487 390
-888 394 -893 4 -4 111 -6 237 -5 l231 3 -511 1140 -512 1140 -237 3 -238 2
-30 -67z"/>
<path d="M3758 3173 c276 -397 752 -1094 752 -1102 0 -6 -175 -264 -388 -573
-214 -310 -392 -569 -396 -576 -6 -9 44 -12 236 -12 l243 0 289 425 c159 234
292 425 295 425 3 -1 137 -192 296 -425 l290 -424 244 0 243 -1 -17 27 c-10
16 -188 275 -397 576 -208 301 -378 552 -378 557 0 4 171 258 380 564 209 306
380 558 380 561 0 3 -106 5 -235 5 l-235 0 -284 -425 -283 -426 -284 425 -284
425 -243 1 -243 0 19 -27z"/>
<path d="M6040 1715 l0 -805 210 0 210 0 0 805 0 805 -210 0 -210 0 0 -805z"/>
</g>
</svg>
